<svg width="16" height="16" viewBox="0 0 16 16" fill="none" xmlns="http://www.w3.org/2000/svg">
<rect width="16" height="16" rx="8" fill="#252525"/>
<path d="M2.084 11V6.616H3.1V8.504H3.028C3.028 8.056 3.084 7.68267 3.196 7.384C3.308 7.08533 3.476 6.86133 3.7 6.712C3.924 6.55733 4.19867 6.48 4.524 6.48H4.58C4.91067 6.48 5.18533 6.55733 5.404 6.712C5.628 6.86133 5.796 7.08533 5.908 7.384C6.02533 7.68267 6.084 8.056 6.084 8.504H5.772C5.772 8.056 5.828 7.68267 5.94 7.384C6.05733 7.08533 6.228 6.86133 6.452 6.712C6.676 6.55733 6.95067 6.48 7.276 6.48H7.332C7.66267 6.48 7.94 6.55733 8.164 6.712C8.39333 6.86133 8.56667 7.08533 8.684 7.384C8.80133 7.68267 8.86 8.056 8.86 8.504V11H7.58V8.432C7.58 8.192 7.516 7.99733 7.388 7.848C7.26533 7.69867 7.08933 7.624 6.86 7.624C6.63067 7.624 6.44933 7.70133 6.316 7.856C6.18267 8.00533 6.116 8.20533 6.116 8.456V11H4.828V8.432C4.828 8.192 4.764 7.99733 4.636 7.848C4.51333 7.69867 4.34 7.624 4.116 7.624C3.88133 7.624 3.69733 7.70133 3.564 7.856C3.43067 8.00533 3.364 8.20533 3.364 8.456V11H2.084ZM9.92719 10.36V9.28L13.5752 8.16V9.2L9.92719 10.36ZM13.5752 8.6L9.92719 7.488V6.384L13.5752 7.544V8.6ZM12.6552 8.688V8.032H12.8952V8.688H12.6552Z" fill="#F5F5F5"/>
</svg>
